<svg width="14" height="18" viewBox="0 0 14 18" fill="none" xmlns="http://www.w3.org/2000/svg">
<path d="M6.87501 0C5.0523 0.00215029 3.30487 0.727169 2.01602 2.01602C0.727176 3.30486 0.00215761 5.0523 7.3143e-06 6.875C-0.00217574 8.36452 0.48437 9.81361 1.38501 11C1.38501 11 1.57251 11.2469 1.60313 11.2825L6.87501 17.5L12.1494 11.2794C12.1769 11.2463 12.365 11 12.365 11L12.3656 10.9981C13.2658 9.81226 13.7521 8.36383 13.75 6.875C13.7479 5.0523 13.0228 3.30486 11.734 2.01602C10.4451 0.727169 8.69771 0.00215029 6.87501 0ZM6.87501 9.375C6.38055 9.375 5.89721 9.22838 5.48608 8.95367C5.07496 8.67897 4.75453 8.28852 4.56531 7.83171C4.37609 7.37489 4.32658 6.87223 4.42304 6.38727C4.51951 5.90232 4.75761 5.45686 5.10724 5.10723C5.45687 4.7576 5.90233 4.5195 6.38728 4.42304C6.87223 4.32657 7.3749 4.37608 7.83172 4.5653C8.28853 4.75452 8.67898 5.07495 8.95368 5.48607C9.22838 5.8972 9.37501 6.38055 9.37501 6.875C9.37418 7.53779 9.11052 8.17319 8.64186 8.64185C8.1732 9.11052 7.5378 9.37417 6.87501 9.375Z" fill="white"/>
</svg>
